<svg version="1.1" id="Layer_1" xmlns="http://www.w3.org/2000/svg" xmlns:xlink="http://www.w3.org/1999/xlink" x="0px" y="0px"
	 width="100%" viewBox="0 0 296 203" enable-background="new 0 0 296 203" xml:space="preserve">
<path fill="#FFFFFF" opacity="1.000000" stroke="none" 
	d="
M297.000000,69.000000 
	C297.000000,114.333336 297.000000,159.166672 297.000000,204.000000 
	C198.333328,204.000000 99.666664,204.000000 1.000000,204.000000 
	C1.000000,136.333328 1.000000,68.666664 1.000000,1.000000 
	C99.666664,1.000000 198.333328,1.000000 297.000000,1.000000 
	C297.000000,23.500000 297.000000,46.000000 297.000000,69.000000 
M101.000000,139.588776 
	C101.000107,137.589310 100.478546,135.397461 101.127625,133.637314 
	C102.010452,131.243286 103.270836,128.236435 105.272194,127.139130 
	C113.280083,122.748482 121.679977,122.921585 129.812790,127.076591 
	C131.175308,127.772705 132.573181,129.489792 132.873871,130.956665 
	C133.592270,134.461258 133.930984,138.096313 133.954147,141.681717 
	C134.058594,157.844833 134.043015,174.009354 133.915726,190.172150 
	C133.905823,191.430008 132.701508,192.678452 132.101212,193.836945 
	C142.647903,193.836945 153.612381,193.836945 164.318573,193.836945 
	C164.206924,191.767532 164.016632,189.849808 164.013702,187.931778 
	C163.989471,172.101288 163.886475,156.269287 164.089478,140.441360 
	C164.133545,137.006027 162.556549,135.322388 159.749725,135.137238 
	C156.785110,134.941666 155.063477,137.015579 155.020447,140.054184 
	C154.952026,144.885544 155.013092,149.718719 155.013809,154.551117 
	C155.015656,166.914246 155.014435,179.277390 155.014435,191.779694 
	C151.823090,191.779694 148.085190,191.779694 144.000000,191.779694 
	C144.000000,178.936768 144.083878,166.310059 143.954514,153.685547 
	C143.909195,149.265610 143.044647,144.848175 143.088074,140.434845 
	C143.135620,135.601288 141.378860,129.919449 147.356705,126.979279 
	C155.366638,123.039658 163.553467,122.743759 171.448990,127.059059 
	C173.403564,128.127335 175.771118,130.733734 175.803833,132.669342 
	C176.127640,151.827133 176.036621,170.992783 175.916306,190.155304 
	C175.908386,191.417526 174.701355,192.672256 174.201584,193.640778 
	C179.947098,193.640778 186.220947,193.640778 193.146378,193.640778 
	C189.323303,191.594666 185.838409,190.643097 185.905548,185.674728 
	C186.146454,167.847824 185.949066,150.015274 186.088623,132.186188 
	C186.100906,130.617706 186.933472,128.522415 188.111649,127.585762 
	C194.199142,122.746185 209.294434,123.097137 215.200439,128.122498 
	C216.162979,128.941498 216.901077,130.587036 216.919891,131.862701 
	C217.061539,141.469635 216.997147,151.079620 216.997147,161.082855 
	C210.454590,161.082855 204.373199,161.082855 198.237457,161.082855 
	C198.237457,168.563736 198.237457,175.642471 198.237457,182.764740 
	C200.550522,182.764740 202.622757,182.764740 205.081940,182.764740 
	C205.081940,179.790604 205.081940,177.045105 205.081940,174.240753 
	C209.217987,174.240753 212.958298,174.240753 217.390778,174.240753 
	C215.367920,181.026154 221.190079,189.490311 210.003830,193.773804 
	C217.239441,193.773804 222.970734,193.773804 227.978302,193.773804 
	C227.978302,167.724838 227.978302,141.890839 227.978302,115.708107 
	C225.820145,116.270370 224.436050,116.886444 223.023926,116.959343 
	C208.858231,117.690681 194.689407,118.845947 180.518600,118.886780 
	C155.604965,118.958580 130.688416,118.388916 105.774986,117.974174 
	C95.021904,117.795166 84.265327,117.491013 73.526520,116.932518 
	C68.171028,116.653992 62.864159,115.542915 57.513123,115.048225 
	C51.832237,114.523048 46.125092,114.281952 40.202065,113.902222 
	C40.202065,117.779915 40.202065,121.189232 40.202065,124.990845 
	C43.450626,124.990845 46.530491,124.990845 49.800110,124.990845 
	C49.800110,128.789581 49.800110,132.197189 49.800110,135.996643 
	C46.544209,135.996643 43.465378,135.996643 40.000000,135.996643 
	C40.000000,148.504822 40.073658,160.626450 39.977364,172.746750 
	C39.896133,182.970520 39.547916,183.213440 49.846573,183.051926 
	C50.119469,183.047638 50.396526,183.308624 51.065216,183.642288 
	C51.065216,186.852341 51.065216,190.274582 51.065216,193.594299 
	C55.946285,193.594299 60.421234,193.594299 64.896187,193.594299 
	C57.655491,190.828064 59.017246,184.791260 59.009125,179.383224 
	C58.984097,162.719559 58.994335,146.055832 59.010105,129.392136 
	C59.011459,127.963242 59.155178,126.534477 59.220589,125.329880 
	C63.394176,125.329880 67.134903,125.329880 71.000000,125.329880 
	C71.000000,142.812088 70.966484,159.964844 71.035866,177.117188 
	C71.046364,179.712448 70.272652,182.917343 74.767525,183.056488 
	C79.251122,183.195312 79.990509,180.332169 79.937912,177.022873 
	C79.883568,173.603592 79.086044,170.195084 79.045914,166.776810 
	C78.920731,156.113510 79.000000,145.447800 79.000000,134.783035 
	C79.000000,131.537369 79.000000,128.291718 79.000000,125.189034 
	C83.352196,125.189034 86.975800,125.189034 90.507950,125.189034 
	C90.716629,125.663353 90.952232,125.949188 90.952621,126.235359 
	C90.980331,146.564789 91.039299,166.894623 90.886879,187.222839 
	C90.876762,188.571671 89.489784,190.204437 88.307449,191.173370 
	C86.927116,192.304550 85.067787,192.851212 83.147537,193.781708 
	C96.566040,193.781708 109.636047,193.781708 122.266434,193.781708 
	C122.171356,191.795868 122.013580,190.006561 122.011314,188.217041 
	C121.991676,172.719818 121.956535,157.222351 122.033546,141.725479 
	C122.050705,138.273849 121.266960,135.093994 117.416855,135.166687 
	C113.584389,135.239059 112.879433,138.497070 112.969223,141.898514 
	C113.092316,146.561096 113.000000,151.229385 113.000000,155.895218 
	C113.000000,167.837875 113.000000,179.780548 113.000000,192.000000 
	C110.708542,192.000000 108.880165,191.800812 107.110489,192.038544 
	C102.405624,192.670609 100.770988,191.037369 100.879936,186.053757 
	C101.211273,170.897034 101.000000,155.728424 101.000000,139.588776 
M79.499954,10.000000 
	C56.409126,10.000000 33.318302,10.000000 10.217962,10.000000 
	C10.217962,40.301727 10.217962,70.041435 10.217962,100.312279 
	C22.203743,94.079407 35.128357,93.793007 47.699623,92.098366 
	C60.393497,90.387184 73.194267,89.468979 85.611336,88.236809 
	C86.267937,82.967751 86.729141,78.587616 87.373253,74.234543 
	C88.868530,64.128937 90.508156,54.044567 91.981712,43.935905 
	C93.107216,36.214836 93.473000,28.321737 95.345543,20.795980 
	C96.323090,16.867186 99.823044,13.566008 102.171432,10.000000 
	C95.123970,10.000000 87.811943,10.000000 79.499954,10.000000 
M224.336334,89.000008 
	C245.335297,91.462227 266.712280,91.723595 286.654999,99.975006 
	C286.654999,69.847198 286.654999,39.973610 286.654999,10.342871 
	C255.362915,10.342871 224.416489,10.342871 192.839035,10.342871 
	C199.031448,13.653943 201.455734,18.411985 202.065643,24.579849 
	C202.816299,32.171017 203.953598,39.728905 205.095108,47.275261 
	C206.645004,57.521263 208.260910,67.759377 210.027451,77.969917 
	C211.737274,87.852554 209.307114,89.220963 221.392838,89.001564 
	C222.058609,88.989479 222.724808,89.000000 224.336334,89.000008 
M240.000000,120.628647 
	C240.000000,143.279724 240.029755,165.930908 239.942429,188.581635 
	C239.935593,190.358032 239.112244,192.131271 238.710144,193.738983 
	C242.663239,193.738983 247.727249,193.738983 253.807922,193.738983 
	C246.045425,187.272583 250.022430,179.422516 248.909927,172.258820 
	C253.275711,172.258820 257.020081,172.258820 261.000122,172.258820 
	C261.000122,174.654541 260.630188,176.883942 261.122009,178.903488 
	C261.488495,180.408447 262.969818,181.641937 263.954651,182.996323 
	C264.969299,181.630753 266.753082,180.327042 266.868744,178.889160 
	C267.444641,171.728760 264.784180,166.023346 258.516296,162.062042 
	C253.275742,158.749985 248.919952,154.695541 248.989349,147.751038 
	C249.034058,143.275925 248.989182,138.800018 249.002472,134.324509 
	C249.020233,128.347122 251.226746,125.865280 257.232178,124.993011 
	C258.177124,124.855774 259.119965,124.665436 260.042816,124.420731 
	C270.944916,121.530006 278.999969,127.626579 279.000000,138.781830 
	C279.000000,141.067184 279.000000,143.352554 279.000000,145.799957 
	C274.835510,145.799957 271.088318,145.799957 266.994904,145.799957 
	C266.994904,143.655457 267.492004,141.508636 266.845459,139.792725 
	C266.277039,138.284195 264.428284,137.258087 263.145020,136.018936 
	C262.430023,137.290878 261.353516,138.485321 261.061462,139.847900 
	C259.654602,146.411407 263.076477,150.424072 268.132172,154.116867 
	C274.885834,159.049911 280.789917,164.823334 279.045441,174.540604 
	C278.726807,176.315475 278.867065,178.208069 279.024109,180.026581 
	C279.564117,186.279755 278.507172,191.592468 271.516357,193.797394 
	C276.549286,193.797394 281.582184,193.797394 286.661743,193.797394 
	C286.661743,164.445312 286.661743,135.297119 286.661743,107.172394 
	C271.072388,110.116669 255.628220,113.033524 240.000000,115.985138 
	C240.000000,117.018906 240.000000,118.341026 240.000000,120.628647 
M21.500696,194.000000 
	C25.857040,194.000000 30.213387,194.000000 35.289581,194.000000 
	C27.999996,188.329117 28.001165,188.329117 27.999727,179.104767 
	C27.997574,165.290039 27.996780,151.475296 27.976641,137.660583 
	C27.975960,137.193939 27.772497,136.727570 27.673586,136.304031 
	C26.378078,136.030319 25.180695,135.777359 24.200768,135.570328 
	C24.200768,131.904541 24.200768,128.611450 24.200768,125.313293 
	C25.586807,125.039375 26.783590,124.802864 28.319408,124.499352 
	C28.319408,120.837769 28.319408,117.438797 28.319408,114.129356 
	C30.841005,113.993668 32.945679,113.880409 35.050350,113.767151 
	C34.999218,113.476410 34.948082,113.185669 34.896950,112.894936 
	C26.757038,110.873978 18.617126,108.853027 10.293732,106.786522 
	C10.293732,136.078369 10.293732,164.936798 10.293732,194.000000 
	C13.894684,194.000000 17.203594,194.000000 21.500696,194.000000 
M138.763336,19.998373 
	C146.212006,21.580839 153.597702,21.584915 160.847244,18.993498 
	C167.662842,16.557192 174.455536,14.056735 181.258301,11.584503 
	C181.092636,11.132620 180.926971,10.680737 180.761307,10.228853 
	C158.354843,10.228853 135.948395,10.228853 113.541931,10.228853 
	C113.499664,10.417849 113.457405,10.606844 113.415146,10.795839 
	C121.575432,13.855542 129.735718,16.915245 138.763336,19.998373 
M204.771240,137.251801 
	C198.545731,133.883072 198.007355,134.175735 198.000427,140.938736 
	C197.997757,143.546829 198.000000,146.154907 198.000000,148.749573 
	C200.583267,148.749573 202.653091,148.749573 204.984375,148.749573 
	C204.984375,145.036575 204.984375,141.570709 204.771240,137.251801 
z"/>
<path fill="#000000" opacity="1.000000" stroke="none" 
	d="
M101.000000,140.076614 
	C101.000000,155.728424 101.211273,170.897034 100.879936,186.053757 
	C100.770988,191.037369 102.405624,192.670609 107.110489,192.038544 
	C108.880165,191.800812 110.708542,192.000000 113.000000,192.000000 
	C113.000000,179.780548 113.000000,167.837875 113.000000,155.895218 
	C113.000000,151.229385 113.092316,146.561096 112.969223,141.898514 
	C112.879433,138.497070 113.584389,135.239059 117.416855,135.166687 
	C121.266960,135.093994 122.050705,138.273849 122.033546,141.725479 
	C121.956535,157.222351 121.991676,172.719818 122.011314,188.217041 
	C122.013580,190.006561 122.171356,191.795868 122.266434,193.781708 
	C109.636047,193.781708 96.566040,193.781708 83.147537,193.781708 
	C85.067787,192.851212 86.927116,192.304550 88.307449,191.173370 
	C89.489784,190.204437 90.876762,188.571671 90.886879,187.222839 
	C91.039299,166.894623 90.980331,146.564789 90.952621,126.235359 
	C90.952232,125.949188 90.716629,125.663353 90.507950,125.189034 
	C86.975800,125.189034 83.352196,125.189034 79.000000,125.189034 
	C79.000000,128.291718 79.000000,131.537369 79.000000,134.783035 
	C79.000000,145.447800 78.920731,156.113510 79.045914,166.776810 
	C79.086044,170.195084 79.883568,173.603592 79.937912,177.022873 
	C79.990509,180.332169 79.251122,183.195312 74.767525,183.056488 
	C70.272652,182.917343 71.046364,179.712448 71.035866,177.117188 
	C70.966484,159.964844 71.000000,142.812088 71.000000,125.329880 
	C67.134903,125.329880 63.394176,125.329880 59.220589,125.329880 
	C59.155178,126.534477 59.011459,127.963242 59.010105,129.392136 
	C58.994335,146.055832 58.984097,162.719559 59.009125,179.383224 
	C59.017246,184.791260 57.655491,190.828064 64.896187,193.594299 
	C60.421234,193.594299 55.946285,193.594299 51.065216,193.594299 
	C51.065216,190.274582 51.065216,186.852341 51.065216,183.642288 
	C50.396526,183.308624 50.119469,183.047638 49.846573,183.051926 
	C39.547916,183.213440 39.896133,182.970520 39.977364,172.746750 
	C40.073658,160.626450 40.000000,148.504822 40.000000,135.996643 
	C43.465378,135.996643 46.544209,135.996643 49.800110,135.996643 
	C49.800110,132.197189 49.800110,128.789581 49.800110,124.990845 
	C46.530491,124.990845 43.450626,124.990845 40.202065,124.990845 
	C40.202065,121.189232 40.202065,117.779915 40.202065,113.902222 
	C46.125092,114.281952 51.832237,114.523048 57.513123,115.048225 
	C62.864159,115.542915 68.171028,116.653992 73.526520,116.932518 
	C84.265327,117.491013 95.021904,117.795166 105.774986,117.974174 
	C130.688416,118.388916 155.604965,118.958580 180.518600,118.886780 
	C194.689407,118.845947 208.858231,117.690681 223.023926,116.959343 
	C224.436050,116.886444 225.820145,116.270370 227.978302,115.708107 
	C227.978302,141.890839 227.978302,167.724838 227.978302,193.773804 
	C222.970734,193.773804 217.239441,193.773804 210.003830,193.773804 
	C221.190079,189.490311 215.367920,181.026154 217.390778,174.240753 
	C212.958298,174.240753 209.217987,174.240753 205.081940,174.240753 
	C205.081940,177.045105 205.081940,179.790604 205.081940,182.764740 
	C202.622757,182.764740 200.550522,182.764740 198.237457,182.764740 
	C198.237457,175.642471 198.237457,168.563736 198.237457,161.082855 
	C204.373199,161.082855 210.454590,161.082855 216.997147,161.082855 
	C216.997147,151.079620 217.061539,141.469635 216.919891,131.862701 
	C216.901077,130.587036 216.162979,128.941498 215.200439,128.122498 
	C209.294434,123.097137 194.199142,122.746185 188.111649,127.585762 
	C186.933472,128.522415 186.100906,130.617706 186.088623,132.186188 
	C185.949066,150.015274 186.146454,167.847824 185.905548,185.674728 
	C185.838409,190.643097 189.323303,191.594666 193.146378,193.640778 
	C186.220947,193.640778 179.947098,193.640778 174.201584,193.640778 
	C174.701355,192.672256 175.908386,191.417526 175.916306,190.155304 
	C176.036621,170.992783 176.127640,151.827133 175.803833,132.669342 
	C175.771118,130.733734 173.403564,128.127335 171.448990,127.059059 
	C163.553467,122.743759 155.366638,123.039658 147.356705,126.979279 
	C141.378860,129.919449 143.135620,135.601288 143.088074,140.434845 
	C143.044647,144.848175 143.909195,149.265610 143.954514,153.685547 
	C144.083878,166.310059 144.000000,178.936768 144.000000,191.779694 
	C148.085190,191.779694 151.823090,191.779694 155.014435,191.779694 
	C155.014435,179.277390 155.015656,166.914246 155.013809,154.551117 
	C155.013092,149.718719 154.952026,144.885544 155.020447,140.054184 
	C155.063477,137.015579 156.785110,134.941666 159.749725,135.137238 
	C162.556549,135.322388 164.133545,137.006027 164.089478,140.441360 
	C163.886475,156.269287 163.989471,172.101288 164.013702,187.931778 
	C164.016632,189.849808 164.206924,191.767532 164.318573,193.836945 
	C153.612381,193.836945 142.647903,193.836945 132.101212,193.836945 
	C132.701508,192.678452 133.905823,191.430008 133.915726,190.172150 
	C134.043015,174.009354 134.058594,157.844833 133.954147,141.681717 
	C133.930984,138.096313 133.592270,134.461258 132.873871,130.956665 
	C132.573181,129.489792 131.175308,127.772705 129.812790,127.076591 
	C121.679977,122.921585 113.280083,122.748482 105.272194,127.139130 
	C103.270836,128.236435 102.010452,131.243286 101.127625,133.637314 
	C100.478546,135.397461 101.000107,137.589310 101.000000,140.076614 
z"/>
<path fill="#000000" opacity="1.000000" stroke="none" 
	d="
M79.999931,10.000000 
	C87.811943,10.000000 95.123970,10.000000 102.171432,10.000000 
	C99.823044,13.566008 96.323090,16.867186 95.345543,20.795980 
	C93.473000,28.321737 93.107216,36.214836 91.981712,43.935905 
	C90.508156,54.044567 88.868530,64.128937 87.373253,74.234543 
	C86.729141,78.587616 86.267937,82.967751 85.611336,88.236809 
	C73.194267,89.468979 60.393497,90.387184 47.699623,92.098366 
	C35.128357,93.793007 22.203743,94.079407 10.217962,100.312279 
	C10.217962,70.041435 10.217962,40.301727 10.217962,10.000000 
	C33.318302,10.000000 56.409126,10.000000 79.999931,10.000000 
z"/>
<path fill="#000000" opacity="1.000000" stroke="none" 
	d="
M223.863571,89.000000 
	C222.724808,89.000000 222.058609,88.989479 221.392838,89.001564 
	C209.307114,89.220963 211.737274,87.852554 210.027451,77.969917 
	C208.260910,67.759377 206.645004,57.521263 205.095108,47.275261 
	C203.953598,39.728905 202.816299,32.171017 202.065643,24.579849 
	C201.455734,18.411985 199.031448,13.653943 192.839035,10.342871 
	C224.416489,10.342871 255.362915,10.342871 286.654999,10.342871 
	C286.654999,39.973610 286.654999,69.847198 286.654999,99.975006 
	C266.712280,91.723595 245.335297,91.462227 223.863571,89.000000 
M225.277802,82.968002 
	C227.847290,79.615608 230.319427,76.181465 233.032898,72.949982 
	C234.161041,71.606445 235.804184,70.695343 237.213165,69.587616 
	C237.470337,69.942223 237.727524,70.296829 237.984711,70.651428 
	C236.617798,75.230835 235.250885,79.810234 233.883972,84.389641 
	C234.171616,84.738503 234.459244,85.087372 234.746887,85.436241 
	C236.037979,84.574951 237.635468,83.960136 238.563324,82.806671 
	C241.473801,79.188446 242.834183,74.988297 241.966431,70.313782 
	C241.572754,68.193062 240.860916,66.131401 240.293427,64.042953 
	C238.026199,65.028984 235.710007,65.920723 233.521271,67.057831 
	C232.854996,67.403976 232.540039,68.426338 232.047318,69.164238 
	C230.766632,66.783524 229.646347,64.700981 228.272064,62.146294 
	C226.173569,64.514038 224.761841,66.106918 223.129562,67.948616 
	C224.374191,68.474228 225.502686,68.950790 226.804092,69.500374 
	C225.386932,73.917961 223.963608,78.354744 222.474213,82.997467 
	C223.192932,82.997467 223.844864,82.997467 225.277802,82.968002 
M213.616791,84.945389 
	C214.873001,84.326157 216.319122,83.929977 217.353119,83.049721 
	C222.275803,78.858856 219.002167,72.219353 221.709885,67.261322 
	C221.802780,67.091232 218.934250,64.539246 217.367264,64.447838 
	C215.876892,64.360901 214.283173,66.045914 212.734894,66.951828 
	C213.652908,67.346817 214.570908,67.741798 215.488922,68.136780 
	C215.741425,69.553001 216.436432,71.061447 216.164062,72.368271 
	C215.323563,76.400772 214.113892,80.356331 213.616791,84.945389 
M224.595337,58.924744 
	C224.291412,57.954105 223.987503,56.983463 223.683594,56.012814 
	C221.635544,57.192287 219.587494,58.371758 217.539444,59.551231 
	C217.874451,60.185246 218.209457,60.819260 218.544464,61.453270 
	C220.366516,60.795933 222.188568,60.138596 224.595337,58.924744 
z"/>
<path fill="#000000" opacity="1.000000" stroke="none" 
	d="
M240.000000,120.145897 
	C240.000000,118.341026 240.000000,117.018906 240.000000,115.985138 
	C255.628220,113.033524 271.072388,110.116669 286.661743,107.172394 
	C286.661743,135.297119 286.661743,164.445312 286.661743,193.797394 
	C281.582184,193.797394 276.549286,193.797394 271.516357,193.797394 
	C278.507172,191.592468 279.564117,186.279755 279.024109,180.026581 
	C278.867065,178.208069 278.726807,176.315475 279.045441,174.540604 
	C280.789917,164.823334 274.885834,159.049911 268.132172,154.116867 
	C263.076477,150.424072 259.654602,146.411407 261.061462,139.847900 
	C261.353516,138.485321 262.430023,137.290878 263.145020,136.018921 
	C264.428284,137.258087 266.277039,138.284195 266.845459,139.792725 
	C267.492004,141.508636 266.994904,143.655457 266.994904,145.799957 
	C271.088318,145.799957 274.835510,145.799957 279.000000,145.799957 
	C279.000000,143.352554 279.000000,141.067184 279.000000,138.781830 
	C278.999969,127.626579 270.944916,121.530006 260.042816,124.420731 
	C259.119965,124.665436 258.177124,124.855774 257.232178,124.993011 
	C251.226746,125.865280 249.020233,128.347122 249.002472,134.324509 
	C248.989182,138.800018 249.034058,143.275925 248.989349,147.751038 
	C248.919952,154.695541 253.275742,158.749985 258.516296,162.062042 
	C264.784180,166.023346 267.444641,171.728760 266.868744,178.889160 
	C266.753082,180.327042 264.969299,181.630753 263.954651,182.996323 
	C262.969818,181.641937 261.488495,180.408447 261.122009,178.903488 
	C260.630188,176.883942 261.000122,174.654541 261.000122,172.258820 
	C257.020081,172.258820 253.275711,172.258820 248.909927,172.258820 
	C250.022430,179.422516 246.045425,187.272583 253.807922,193.738983 
	C247.727249,193.738983 242.663239,193.738983 238.710144,193.738983 
	C239.112244,192.131271 239.935593,190.358032 239.942429,188.581635 
	C240.029755,165.930908 240.000000,143.279724 240.000000,120.145897 
z"/>
<path fill="#000000" opacity="1.000000" stroke="none" 
	d="
M21.006599,194.000000 
	C17.203594,194.000000 13.894684,194.000000 10.293732,194.000000 
	C10.293732,164.936798 10.293732,136.078369 10.293732,106.786522 
	C18.617126,108.853027 26.757038,110.873978 34.896950,112.894936 
	C34.948082,113.185669 34.999218,113.476410 35.050350,113.767151 
	C32.945679,113.880409 30.841005,113.993668 28.319408,114.129356 
	C28.319408,117.438797 28.319408,120.837769 28.319408,124.499352 
	C26.783590,124.802864 25.586807,125.039375 24.200768,125.313293 
	C24.200768,128.611450 24.200768,131.904541 24.200768,135.570328 
	C25.180695,135.777359 26.378078,136.030319 27.673586,136.304031 
	C27.772497,136.727570 27.975960,137.193939 27.976641,137.660583 
	C27.996780,151.475296 27.997574,165.290039 27.999727,179.104767 
	C28.001165,188.329117 27.999996,188.329117 35.289581,194.000000 
	C30.213387,194.000000 25.857040,194.000000 21.006599,194.000000 
z"/>
<path fill="#000000" opacity="1.000000" stroke="none" 
	d="
M138.329681,19.986660 
	C129.735718,16.915245 121.575432,13.855542 113.415146,10.795839 
	C113.457405,10.606844 113.499664,10.417849 113.541931,10.228853 
	C135.948395,10.228853 158.354843,10.228853 180.761307,10.228853 
	C180.926971,10.680737 181.092636,11.132620 181.258301,11.584503 
	C174.455536,14.056735 167.662842,16.557192 160.847244,18.993498 
	C153.597702,21.584915 146.212006,21.580839 138.329681,19.986660 
z"/>
<path fill="#000000" opacity="1.000000" stroke="none" 
	d="
M204.877808,137.678314 
	C204.984375,141.570709 204.984375,145.036575 204.984375,148.749573 
	C202.653091,148.749573 200.583267,148.749573 198.000000,148.749573 
	C198.000000,146.154907 197.997757,143.546829 198.000427,140.938736 
	C198.007355,134.175735 198.545731,133.883072 204.877808,137.678314 
z"/>
<path fill="#FFFFFF" opacity="1.000000" stroke="none" 
	d="
M224.887299,82.982735 
	C223.844864,82.997467 223.192932,82.997467 222.474213,82.997467 
	C223.963608,78.354744 225.386932,73.917961 226.804092,69.500374 
	C225.502686,68.950790 224.374191,68.474228 223.129562,67.948616 
	C224.761841,66.106918 226.173569,64.514038 228.272064,62.146294 
	C229.646347,64.700981 230.766632,66.783524 232.047318,69.164238 
	C232.540039,68.426338 232.854996,67.403976 233.521271,67.057831 
	C235.710007,65.920723 238.026199,65.028984 240.293427,64.042953 
	C240.860916,66.131401 241.572754,68.193062 241.966431,70.313782 
	C242.834183,74.988297 241.473801,79.188446 238.563324,82.806671 
	C237.635468,83.960136 236.037979,84.574951 234.746887,85.436241 
	C234.459244,85.087372 234.171616,84.738503 233.883972,84.389641 
	C235.250885,79.810234 236.617798,75.230835 237.984711,70.651428 
	C237.727524,70.296829 237.470337,69.942223 237.213165,69.587616 
	C235.804184,70.695343 234.161041,71.606445 233.032898,72.949982 
	C230.319427,76.181465 227.847290,79.615608 224.887299,82.982735 
z"/>
<path fill="#FFFFFF" opacity="1.000000" stroke="none" 
	d="
M213.332214,84.643585 
	C214.113892,80.356331 215.323563,76.400772 216.164062,72.368271 
	C216.436432,71.061447 215.741425,69.553001 215.488922,68.136780 
	C214.570908,67.741798 213.652908,67.346817 212.734894,66.951828 
	C214.283173,66.045914 215.876892,64.360901 217.367264,64.447838 
	C218.934250,64.539246 221.802780,67.091232 221.709885,67.261322 
	C219.002167,72.219353 222.275803,78.858856 217.353119,83.049721 
	C216.319122,83.929977 214.873001,84.326157 213.332214,84.643585 
z"/>
<path fill="#FFFFFF" opacity="1.000000" stroke="none" 
	d="
M224.302979,59.203003 
	C222.188568,60.138596 220.366516,60.795933 218.544464,61.453270 
	C218.209457,60.819260 217.874451,60.185246 217.539444,59.551231 
	C219.587494,58.371758 221.635544,57.192287 223.683594,56.012817 
	C223.987503,56.983463 224.291412,57.954105 224.302979,59.203003 
z"/>
</svg>