<svg version="1.1" id="Layer_1" xmlns="http://www.w3.org/2000/svg" xmlns:xlink="http://www.w3.org/1999/xlink" x="0px" y="0px"
	 width="100%" viewBox="0 0 296 203" enable-background="new 0 0 296 203" xml:space="preserve">
<path fill="#FEAC16" opacity="1.000000" stroke="none" 
	d="
M297.000000,68.000000 
	C297.000000,113.666664 297.000000,158.833328 297.000000,204.000000 
	C198.333328,204.000000 99.666664,204.000000 1.000000,204.000000 
	C1.000000,136.333328 1.000000,68.666664 1.000000,1.000000 
	C99.666664,1.000000 198.333328,1.000000 297.000000,1.000000 
	C297.000000,23.166666 297.000000,45.333332 297.000000,68.000000 
M226.755646,67.529510 
	C225.601349,72.884628 224.447052,78.239746 223.112411,84.431557 
	C228.386215,83.631859 228.137436,78.864220 230.217499,76.272141 
	C232.606140,73.295517 234.790283,70.154762 237.063248,67.085304 
	C237.603897,67.361900 238.144547,67.638489 238.685196,67.915077 
	C237.249390,73.389236 235.813599,78.863388 234.377792,84.337540 
	C236.148483,84.440063 237.302597,83.802711 238.167297,82.890900 
	C242.252441,78.583206 241.107666,72.918365 241.765381,67.768768 
	C241.896576,66.741577 240.519257,65.049156 239.418854,64.495171 
	C238.619583,64.092781 236.763092,64.713036 236.024597,65.491066 
	C234.477478,67.121017 233.356995,69.155922 232.061310,71.024529 
	C231.858917,70.505173 231.656540,69.985817 231.454163,69.466461 
	C230.694122,67.751869 229.934097,66.037277 229.174057,64.322693 
	C227.895432,65.002190 226.616791,65.681686 224.954025,66.738159 
	C224.876724,67.114990 224.799438,67.491821 224.722137,67.868645 
	C225.189667,67.625465 225.657211,67.382286 226.755646,67.529510 
M178.231216,118.673058 
	C194.763718,117.892494 211.296219,117.111938 228.380096,116.305351 
	C228.380096,141.729523 228.380096,166.795029 228.380096,191.924622 
	C232.174591,191.924622 235.421646,191.924622 239.096420,191.924622 
	C239.096420,166.191833 239.096420,140.765808 239.096420,115.040413 
	C242.093246,114.637192 244.724854,114.397820 247.311096,113.915291 
	C258.544006,111.819504 269.795227,109.799187 280.962067,107.390869 
	C283.250153,106.897400 285.204010,104.854225 287.311951,103.525375 
	C287.285126,102.931740 287.258331,102.338097 287.231537,101.744461 
	C284.061066,100.190239 281.040222,98.093391 277.695496,97.170967 
	C257.870026,91.703362 237.463821,90.241119 217.051575,89.161346 
	C212.831146,88.938103 210.820435,87.866119 210.224274,83.472816 
	C207.612808,64.228523 204.280136,45.070831 202.135254,25.778753 
	C200.869141,14.390649 192.270187,6.135839 179.392563,12.307449 
	C170.430847,16.602343 160.381104,19.303528 150.523651,20.881350 
	C138.222321,22.850348 127.011307,17.105303 116.298737,11.957617 
	C104.504974,6.290397 96.153763,14.805634 94.934746,24.529789 
	C92.273041,45.762302 88.891426,66.904572 85.805099,88.075661 
	C84.982933,88.365265 84.376900,88.715004 83.740845,88.782722 
	C70.191322,90.225502 56.586914,91.271820 43.103394,93.175758 
	C33.301258,94.559853 23.627605,96.940025 13.975376,99.210655 
	C12.452422,99.568924 10.648236,101.545006 10.308488,103.070297 
	C10.102890,103.993324 12.250266,105.975967 13.719469,106.626282 
	C16.882280,108.026230 20.217976,109.376991 23.609528,109.861374 
	C41.019508,112.347908 58.413300,115.799507 75.917778,116.590874 
	C109.667297,118.116669 143.487289,118.083702 178.231216,118.673058 
M73.893074,82.611412 
	C75.658363,80.995445 79.503647,83.574005 80.052582,79.212563 
	C81.191299,70.165154 82.653160,61.158241 83.995247,52.136627 
	C86.085899,38.083103 88.187431,24.031204 90.222954,10.390043 
	C64.201302,10.390043 37.154705,10.390043 10.367281,10.390043 
	C10.367281,37.806606 10.367281,64.831360 10.367281,91.167633 
	C20.833601,89.416557 31.003693,87.419785 41.259678,86.081039 
	C51.815983,84.703079 62.456028,83.966713 73.893074,82.611412 
M248.968887,65.131210 
	C248.772873,71.268929 248.576859,77.406647 248.369278,83.906334 
	C260.359344,86.195251 273.525909,88.708763 286.638611,91.211990 
	C286.638611,64.537064 286.638611,37.352341 286.638611,10.168427 
	C259.377045,10.168427 232.478058,10.168427 206.501404,10.168427 
	C208.814117,24.289833 211.123901,38.393356 213.449097,52.591049 
	C220.881561,46.659279 227.121368,47.762367 231.991928,55.426903 
	C232.626801,56.425980 234.668472,56.900139 236.089279,56.967403 
	C242.554474,57.273460 246.867599,57.787304 248.968887,65.131210 
M91.005745,164.500000 
	C91.005745,151.694809 91.005745,138.889603 91.005745,125.756073 
	C87.202538,125.756073 83.797050,125.756073 79.880554,125.756073 
	C79.880554,127.769150 79.876961,129.559540 79.881126,131.349915 
	C79.916801,146.677094 79.932472,162.004379 80.007713,177.331360 
	C80.023720,180.591492 79.726540,183.426834 75.471352,183.521347 
	C71.173874,183.616776 70.859619,180.933640 70.882507,177.559006 
	C70.986458,162.230515 70.945023,146.901047 70.955475,131.571930 
	C70.956795,129.629715 70.955650,127.687515 70.955650,125.663864 
	C66.786346,125.663864 63.257328,125.663864 59.887775,125.663864 
	C59.619560,126.401199 59.408890,126.709221 59.409752,127.016663 
	C59.464497,146.507706 59.392391,166.001816 59.810658,185.485352 
	C59.856831,187.636215 62.262760,190.650467 64.353874,191.678558 
	C71.758812,195.319199 79.594322,195.042114 86.954620,191.488724 
	C88.832359,190.582169 90.663399,187.623749 90.824684,185.480789 
	C91.323456,178.853500 91.006508,172.164810 91.005745,164.500000 
M188.457642,128.047638 
	C187.656174,129.770386 186.175507,131.486343 186.158173,133.216934 
	C185.983322,150.692947 185.945938,168.172791 186.194305,185.646957 
	C186.220795,187.509964 187.868698,190.151443 189.518127,191.053284 
	C197.319595,195.318802 205.448212,195.293030 213.317215,191.125168 
	C214.837326,190.320038 216.496002,188.342957 216.685440,186.740372 
	C217.164612,182.686630 216.844391,178.538376 216.844391,174.299988 
	C212.742477,174.299988 209.181686,174.299988 205.157104,174.299988 
	C205.157104,176.563904 205.522614,178.624313 205.024857,180.449295 
	C204.708328,181.609772 203.024612,183.286423 202.105316,183.195831 
	C200.522507,183.039841 197.800064,181.758850 197.745605,180.822647 
	C197.363998,174.262756 197.543503,167.670242 197.543503,160.512650 
	C204.283173,160.512650 210.361832,160.512650 216.865280,160.512650 
	C216.865280,151.303543 216.751755,142.682114 216.918152,134.066116 
	C216.990158,130.338272 215.348267,128.242661 212.096863,126.795815 
	C204.268478,123.312241 196.646027,123.624031 188.457642,128.047638 
M175.570389,180.470520 
	C175.511124,165.147995 175.346710,149.824661 175.462372,134.503464 
	C175.493484,130.381989 173.917191,128.069672 170.172318,126.555557 
	C163.175964,123.726807 156.313263,123.905701 149.300842,126.424286 
	C145.534332,127.777054 143.736893,129.969589 143.821243,134.172272 
	C144.051804,145.660660 143.969513,157.155518 143.994034,168.647827 
	C144.010284,176.264450 143.997101,183.881134 143.997101,191.722565 
	C147.903336,191.722565 151.292770,191.722565 155.116318,191.722565 
	C155.116318,189.650070 155.119965,187.856354 155.115753,186.062668 
	C155.080063,170.905975 155.061325,155.749207 154.991470,140.592667 
	C154.976730,137.394211 155.616547,135.025162 159.565506,134.965317 
	C163.564468,134.904739 164.116898,137.193237 164.096619,140.459564 
	C164.008759,154.617065 164.048584,168.775360 164.042526,182.933365 
	C164.041260,185.881973 164.042328,188.830597 164.042328,192.008209 
	C168.061523,192.008209 171.493881,192.008209 175.570129,192.008209 
	C175.570129,188.356567 175.570129,184.907486 175.570389,180.470520 
M101.632729,139.551529 
	C101.632729,156.962891 101.632729,174.374268 101.632729,191.732635 
	C105.995262,191.732635 109.263916,191.732635 112.982780,191.732635 
	C112.982780,189.691193 112.983376,187.894592 112.982689,186.097992 
	C112.976967,171.101944 113.000389,156.105804 112.942017,141.109955 
	C112.929329,137.850845 113.088600,134.991943 117.444550,134.969742 
	C121.749268,134.947830 122.070824,137.706207 122.057083,141.021088 
	C121.994247,156.183517 122.020020,171.346329 122.014160,186.509003 
	C122.013474,188.286697 122.014069,190.064377 122.014069,191.892792 
	C126.040215,191.892792 129.437164,191.892792 133.235153,191.892792 
	C133.235153,189.752594 133.242401,187.951447 133.234024,186.150375 
	C133.157394,169.656265 133.085999,153.162109 132.996078,136.668060 
	C132.952011,128.586563 131.648010,126.941498 123.869240,125.175514 
	C122.249420,124.807770 120.598892,124.523918 118.946793,124.357933 
	C107.639488,123.221924 101.623001,128.179306 101.632729,139.551529 
M274.421600,160.217926 
	C271.432434,157.570801 268.669769,154.592773 265.400452,152.354935 
	C260.621826,149.084000 260.167023,144.520004 260.904297,139.608032 
	C261.120758,138.165756 262.760986,136.937195 263.748688,135.610687 
	C264.836945,137.003922 266.394470,138.250504 266.888000,139.829605 
	C267.436035,141.583160 267.013428,143.640076 267.013428,145.566818 
	C271.110260,145.566818 274.509308,145.566818 278.033813,145.566818 
	C278.033813,140.924362 278.221436,136.618393 277.930603,132.344971 
	C277.830688,130.876556 276.896240,128.984863 275.726654,128.148346 
	C268.868073,123.242958 261.421265,123.580750 253.914047,126.447968 
	C247.850388,128.763855 249.363770,134.182846 249.103378,138.835632 
	C249.038315,139.998184 249.085297,141.169144 248.979095,142.326904 
	C248.165970,151.192551 251.696426,157.863464 259.271423,162.364410 
	C266.063324,166.400040 267.896301,172.598862 266.890411,179.865479 
	C266.711609,181.157196 264.785675,182.207062 263.666504,183.368607 
	C262.717010,182.163620 261.254211,181.078293 260.938904,179.725494 
	C260.471619,177.720825 260.817993,175.526520 260.817993,172.882553 
	C258.481750,172.882553 256.692566,172.882568 254.903381,172.882568 
	C253.129959,172.882568 251.356522,172.882553 249.083176,172.882553 
	C249.083176,176.104614 249.077499,178.726593 249.084229,181.348557 
	C249.105743,189.739685 251.149948,192.408478 259.305115,193.747330 
	C262.215485,194.225143 265.334320,194.210709 268.247955,193.740005 
	C275.923248,192.500015 278.028503,190.000519 278.258972,182.163406 
	C278.400574,177.348053 278.501282,172.485580 277.973938,167.715714 
	C277.707611,165.306656 276.004547,163.056442 274.421600,160.217926 
M48.105541,125.100067 
	C45.484482,125.100067 42.863426,125.100067 40.410240,125.100067 
	C39.724857,121.212738 40.228157,116.565277 38.261375,114.977509 
	C36.207611,113.319519 31.775732,114.607307 28.461287,114.607307 
	C28.280203,115.721893 28.221996,116.215782 28.117775,116.699760 
	C27.413651,119.969536 30.078173,124.174042 24.725391,126.364029 
	C23.792725,126.745613 24.058067,134.654175 25.511456,135.327499 
	C28.700350,136.804840 28.081245,138.729584 28.093155,140.807800 
	C28.167566,153.794724 28.156157,166.782150 28.165468,179.769409 
	C28.172888,190.116486 29.644154,192.060837 39.872051,193.695374 
	C43.217125,194.229950 46.719624,193.779449 50.410324,193.779449 
	C50.410324,190.203568 50.410324,187.134384 50.410324,183.786850 
	C48.871555,183.642471 47.571613,183.345337 46.297775,183.431946 
	C41.355705,183.768051 39.385010,181.662704 39.755600,176.642883 
	C40.122486,171.673233 39.892578,166.658524 39.899361,161.663544 
	C39.910820,153.224365 39.902504,144.785156 39.902504,136.099060 
	C43.503292,135.940384 46.548328,135.806213 50.211658,135.644791 
	C49.749855,131.739136 49.370029,128.526779 48.105541,125.100067 
M20.976917,143.219437 
	C14.672661,134.669693 15.328353,126.088997 20.963242,117.332619 
	C17.441547,116.157486 13.967030,114.998085 10.353181,113.792206 
	C10.353181,140.778015 10.353181,167.306564 10.353181,193.843155 
	C14.664639,193.843155 18.619957,193.843155 21.865107,193.843155 
	C20.112267,177.219421 21.389864,160.634537 20.976917,143.219437 
M285.937988,142.165039 
	C284.307495,146.319244 286.309326,152.515900 279.701874,153.140244 
	C281.587341,156.408386 284.565491,159.269974 284.742828,162.295715 
	C285.350616,172.665756 284.976013,183.093384 284.976013,193.499054 
	C286.078033,192.709412 286.936615,191.267609 286.941620,189.822876 
	C287.024750,165.827881 287.005829,141.832535 286.986420,117.837280 
	C286.985413,116.595840 286.775696,115.354568 286.629181,113.738609 
	C281.817383,115.092545 277.416809,116.330757 271.862030,117.893738 
	C274.386383,118.876259 275.772400,119.559242 277.235870,119.958107 
	C281.446075,121.105598 283.990570,124.128922 284.814606,128.028168 
	C285.724335,132.332764 285.641663,136.847107 285.937988,142.165039 
M46.999115,157.505707 
	C46.999115,163.605774 46.999115,169.705826 46.999115,175.622009 
	C48.838669,176.126160 50.221882,176.505249 51.824074,176.944351 
	C51.824074,165.319199 51.824074,153.916504 51.824074,142.498962 
	C50.214241,142.805634 48.693546,143.095322 46.999115,143.418106 
	C46.999115,147.916336 46.999115,152.213409 46.999115,157.505707 
M133.957489,10.875399 
	C143.828049,14.803535 153.617249,15.462708 163.716888,10.131800 
	C153.441971,10.131800 143.626205,10.131800 133.957489,10.875399 
M216.186096,66.575523 
	C216.593658,67.593216 217.527817,68.737579 217.318695,69.606911 
	C216.354416,73.615501 214.984711,77.525307 213.964935,81.522713 
	C213.714066,82.506104 214.231674,83.685532 214.395996,84.774841 
	C215.268753,84.230919 216.351791,83.863251 216.979752,83.114120 
	C220.733124,78.636574 220.125458,72.882637 220.933624,67.661995 
	C221.483917,64.107010 219.171188,63.246483 216.186096,66.575523 
z"/>
<path fill="#FFFEFD" opacity="1.000000" stroke="none" 
	d="
M177.754639,118.685059 
	C143.487289,118.083702 109.667297,118.116669 75.917778,116.590874 
	C58.413300,115.799507 41.019508,112.347908 23.609528,109.861374 
	C20.217976,109.376991 16.882280,108.026230 13.719469,106.626282 
	C12.250266,105.975967 10.102890,103.993324 10.308488,103.070297 
	C10.648236,101.545006 12.452422,99.568924 13.975376,99.210655 
	C23.627605,96.940025 33.301258,94.559853 43.103394,93.175758 
	C56.586914,91.271820 70.191322,90.225502 83.740845,88.782722 
	C84.376900,88.715004 84.982933,88.365265 85.805099,88.075661 
	C88.891426,66.904572 92.273041,45.762302 94.934746,24.529789 
	C96.153763,14.805634 104.504974,6.290397 116.298737,11.957617 
	C127.011307,17.105303 138.222321,22.850348 150.523651,20.881350 
	C160.381104,19.303528 170.430847,16.602343 179.392563,12.307449 
	C192.270187,6.135839 200.869141,14.390649 202.135254,25.778753 
	C204.280136,45.070831 207.612808,64.228523 210.224274,83.472816 
	C210.820435,87.866119 212.831146,88.938103 217.051575,89.161346 
	C237.463821,90.241119 257.870026,91.703362 277.695496,97.170967 
	C281.040222,98.093391 284.061066,100.190239 287.231537,101.744461 
	C287.258331,102.338097 287.285126,102.931740 287.311951,103.525375 
	C285.204010,104.854225 283.250153,106.897400 280.962067,107.390869 
	C269.795227,109.799187 258.544006,111.819504 247.311096,113.915291 
	C244.724854,114.397820 242.093246,114.637192 239.096420,115.040413 
	C239.096420,140.765808 239.096420,166.191833 239.096420,191.924622 
	C235.421646,191.924622 232.174591,191.924622 228.380096,191.924622 
	C228.380096,166.795029 228.380096,141.729523 228.380096,116.305351 
	C211.296219,117.111938 194.763718,117.892494 177.754639,118.685059 
z"/>
<path fill="#000000" opacity="1.000000" stroke="none" 
	d="
M73.476257,82.780502 
	C62.456028,83.966713 51.815983,84.703079 41.259678,86.081039 
	C31.003693,87.419785 20.833601,89.416557 10.367281,91.167633 
	C10.367281,64.831360 10.367281,37.806606 10.367281,10.390043 
	C37.154705,10.390043 64.201302,10.390043 90.222954,10.390043 
	C88.187431,24.031204 86.085899,38.083103 83.995247,52.136627 
	C82.653160,61.158241 81.191299,70.165154 80.052582,79.212563 
	C79.503647,83.574005 75.658363,80.995445 73.476257,82.780502 
z"/>
<path fill="#000000" opacity="1.000000" stroke="none" 
	d="
M248.866364,64.709946 
	C246.867599,57.787304 242.554474,57.273460 236.089279,56.967403 
	C234.668472,56.900139 232.626801,56.425980 231.991928,55.426903 
	C227.121368,47.762367 220.881561,46.659279 213.449097,52.591049 
	C211.123901,38.393356 208.814117,24.289833 206.501404,10.168427 
	C232.478058,10.168427 259.377045,10.168427 286.638611,10.168427 
	C286.638611,37.352341 286.638611,64.537064 286.638611,91.211990 
	C273.525909,88.708763 260.359344,86.195251 248.369278,83.906334 
	C248.576859,77.406647 248.772873,71.268929 248.866364,64.709946 
z"/>
<path fill="#FFFDF9" opacity="1.000000" stroke="none" 
	d="
M91.006012,164.999985 
	C91.006508,172.164810 91.323456,178.853500 90.824684,185.480789 
	C90.663399,187.623749 88.832359,190.582169 86.954620,191.488724 
	C79.594322,195.042114 71.758812,195.319199 64.353874,191.678558 
	C62.262760,190.650467 59.856831,187.636215 59.810658,185.485352 
	C59.392391,166.001816 59.464497,146.507706 59.409752,127.016663 
	C59.408890,126.709221 59.619560,126.401199 59.887775,125.663864 
	C63.257328,125.663864 66.786346,125.663864 70.955650,125.663864 
	C70.955650,127.687515 70.956795,129.629715 70.955475,131.571930 
	C70.945023,146.901047 70.986458,162.230515 70.882507,177.559006 
	C70.859619,180.933640 71.173874,183.616776 75.471352,183.521347 
	C79.726540,183.426834 80.023720,180.591492 80.007713,177.331360 
	C79.932472,162.004379 79.916801,146.677094 79.881126,131.349915 
	C79.876961,129.559540 79.880554,127.769150 79.880554,125.756073 
	C83.797050,125.756073 87.202538,125.756073 91.005745,125.756073 
	C91.005745,138.889603 91.005745,151.694809 91.006012,164.999985 
z"/>
<path fill="#FFFDF9" opacity="1.000000" stroke="none" 
	d="
M188.788971,127.832840 
	C196.646027,123.624031 204.268478,123.312241 212.096863,126.795815 
	C215.348267,128.242661 216.990158,130.338272 216.918152,134.066116 
	C216.751755,142.682114 216.865280,151.303543 216.865280,160.512650 
	C210.361832,160.512650 204.283173,160.512650 197.543503,160.512650 
	C197.543503,167.670242 197.363998,174.262756 197.745605,180.822647 
	C197.800064,181.758850 200.522507,183.039841 202.105316,183.195831 
	C203.024612,183.286423 204.708328,181.609772 205.024857,180.449295 
	C205.522614,178.624313 205.157104,176.563904 205.157104,174.299988 
	C209.181686,174.299988 212.742477,174.299988 216.844391,174.299988 
	C216.844391,178.538376 217.164612,182.686630 216.685440,186.740372 
	C216.496002,188.342957 214.837326,190.320038 213.317215,191.125168 
	C205.448212,195.293030 197.319595,195.318802 189.518127,191.053284 
	C187.868698,190.151443 186.220795,187.509964 186.194305,185.646957 
	C185.945938,168.172791 185.983322,150.692947 186.158173,133.216934 
	C186.175507,131.486343 187.656174,129.770386 188.788971,127.832840 
M202.424164,149.662048 
	C203.198441,149.443466 204.637482,149.251740 204.647568,149.002289 
	C204.806091,145.077423 205.127518,141.093414 204.554825,137.250687 
	C204.410751,136.284042 201.287277,135.349854 199.489609,135.258972 
	C198.838806,135.226089 197.673447,137.637543 197.432495,139.051193 
	C197.074692,141.150589 197.498535,143.371292 197.285706,145.510101 
	C196.955093,148.832291 198.333038,150.130325 202.424164,149.662048 
z"/>
<path fill="#FFFDFA" opacity="1.000000" stroke="none" 
	d="
M175.570251,180.964447 
	C175.570129,184.907486 175.570129,188.356567 175.570129,192.008209 
	C171.493881,192.008209 168.061523,192.008209 164.042328,192.008209 
	C164.042328,188.830597 164.041260,185.881973 164.042526,182.933365 
	C164.048584,168.775360 164.008759,154.617065 164.096619,140.459564 
	C164.116898,137.193237 163.564468,134.904739 159.565506,134.965317 
	C155.616547,135.025162 154.976730,137.394211 154.991470,140.592667 
	C155.061325,155.749207 155.080063,170.905975 155.115753,186.062668 
	C155.119965,187.856354 155.116318,189.650070 155.116318,191.722565 
	C151.292770,191.722565 147.903336,191.722565 143.997101,191.722565 
	C143.997101,183.881134 144.010284,176.264450 143.994034,168.647827 
	C143.969513,157.155518 144.051804,145.660660 143.821243,134.172272 
	C143.736893,129.969589 145.534332,127.777054 149.300842,126.424286 
	C156.313263,123.905701 163.175964,123.726807 170.172318,126.555557 
	C173.917191,128.069672 175.493484,130.381989 175.462372,134.503464 
	C175.346710,149.824661 175.511124,165.147995 175.570251,180.964447 
z"/>
<path fill="#FFFEFD" opacity="1.000000" stroke="none" 
	d="
M101.632629,139.063354 
	C101.623001,128.179306 107.639488,123.221924 118.946793,124.357933 
	C120.598892,124.523918 122.249420,124.807770 123.869240,125.175514 
	C131.648010,126.941498 132.952011,128.586563 132.996078,136.668060 
	C133.085999,153.162109 133.157394,169.656265 133.234024,186.150375 
	C133.242401,187.951447 133.235153,189.752594 133.235153,191.892792 
	C129.437164,191.892792 126.040215,191.892792 122.014069,191.892792 
	C122.014069,190.064377 122.013474,188.286697 122.014160,186.509003 
	C122.020020,171.346329 121.994247,156.183517 122.057083,141.021088 
	C122.070824,137.706207 121.749268,134.947830 117.444550,134.969742 
	C113.088600,134.991943 112.929329,137.850845 112.942017,141.109955 
	C113.000389,156.105804 112.976967,171.101944 112.982689,186.097992 
	C112.983376,187.894592 112.982780,189.691193 112.982780,191.732635 
	C109.263916,191.732635 105.995262,191.732635 101.632729,191.732635 
	C101.632729,174.374268 101.632729,156.962891 101.632629,139.063354 
z"/>
<path fill="#FFFDFA" opacity="1.000000" stroke="none" 
	d="
M274.686340,160.476166 
	C276.004547,163.056442 277.707611,165.306656 277.973938,167.715714 
	C278.501282,172.485580 278.400574,177.348053 278.258972,182.163406 
	C278.028503,190.000519 275.923248,192.500015 268.247955,193.740005 
	C265.334320,194.210709 262.215485,194.225143 259.305115,193.747330 
	C251.149948,192.408478 249.105743,189.739685 249.084229,181.348557 
	C249.077499,178.726593 249.083176,176.104614 249.083176,172.882553 
	C251.356522,172.882553 253.129959,172.882568 254.903381,172.882568 
	C256.692566,172.882568 258.481750,172.882553 260.817993,172.882553 
	C260.817993,175.526520 260.471619,177.720825 260.938904,179.725494 
	C261.254211,181.078293 262.717010,182.163620 263.666504,183.368607 
	C264.785675,182.207062 266.711609,181.157196 266.890411,179.865479 
	C267.896301,172.598862 266.063324,166.400040 259.271423,162.364410 
	C251.696426,157.863464 248.165970,151.192551 248.979095,142.326904 
	C249.085297,141.169144 249.038315,139.998184 249.103378,138.835632 
	C249.363770,134.182846 247.850388,128.763855 253.914047,126.447968 
	C261.421265,123.580750 268.868073,123.242958 275.726654,128.148346 
	C276.896240,128.984863 277.830688,130.876556 277.930603,132.344971 
	C278.221436,136.618393 278.033813,140.924362 278.033813,145.566818 
	C274.509308,145.566818 271.110260,145.566818 267.013428,145.566818 
	C267.013428,143.640076 267.436035,141.583160 266.888000,139.829605 
	C266.394470,138.250504 264.836945,137.003922 263.748688,135.610687 
	C262.760986,136.937195 261.120758,138.165756 260.904297,139.608032 
	C260.167023,144.520004 260.621826,149.084000 265.400452,152.354935 
	C268.669769,154.592773 271.432434,157.570801 274.686340,160.476166 
z"/>
<path fill="#FFFCF5" opacity="1.000000" stroke="none" 
	d="
M48.547871,125.207245 
	C49.370029,128.526779 49.749855,131.739136 50.211658,135.644791 
	C46.548328,135.806213 43.503292,135.940384 39.902504,136.099060 
	C39.902504,144.785156 39.910820,153.224365 39.899361,161.663544 
	C39.892578,166.658524 40.122486,171.673233 39.755600,176.642883 
	C39.385010,181.662704 41.355705,183.768051 46.297775,183.431946 
	C47.571613,183.345337 48.871555,183.642471 50.410324,183.786850 
	C50.410324,187.134384 50.410324,190.203568 50.410324,193.779449 
	C46.719624,193.779449 43.217125,194.229950 39.872051,193.695374 
	C29.644154,192.060837 28.172888,190.116486 28.165468,179.769409 
	C28.156157,166.782150 28.167566,153.794724 28.093155,140.807800 
	C28.081245,138.729584 28.700350,136.804840 25.511456,135.327499 
	C24.058067,134.654175 23.792725,126.745613 24.725391,126.364029 
	C30.078173,124.174042 27.413651,119.969536 28.117775,116.699760 
	C28.221996,116.215782 28.280203,115.721893 28.461287,114.607307 
	C31.775732,114.607307 36.207611,113.319519 38.261375,114.977509 
	C40.228157,116.565277 39.724857,121.212738 40.410240,125.100067 
	C42.863426,125.100067 45.484482,125.100067 48.547871,125.207245 
z"/>
<path fill="#000000" opacity="1.000000" stroke="none" 
	d="
M20.987381,143.661072 
	C21.389864,160.634537 20.112267,177.219421 21.865107,193.843155 
	C18.619957,193.843155 14.664639,193.843155 10.353181,193.843155 
	C10.353181,167.306564 10.353181,140.778015 10.353181,113.792206 
	C13.967030,114.998085 17.441547,116.157486 20.963242,117.332619 
	C15.328353,126.088997 14.672661,134.669693 20.987381,143.661072 
z"/>
<path fill="#000000" opacity="1.000000" stroke="none" 
	d="
M285.964600,141.717560 
	C285.641663,136.847107 285.724335,132.332764 284.814606,128.028168 
	C283.990570,124.128922 281.446075,121.105598 277.235870,119.958107 
	C275.772400,119.559242 274.386383,118.876259 271.862030,117.893738 
	C277.416809,116.330757 281.817383,115.092545 286.629181,113.738609 
	C286.775696,115.354568 286.985413,116.595840 286.986420,117.837280 
	C287.005829,141.832535 287.024750,165.827881 286.941620,189.822876 
	C286.936615,191.267609 286.078033,192.709412 284.976013,193.499054 
	C284.976013,183.093384 285.350616,172.665756 284.742828,162.295715 
	C284.565491,159.269974 281.587341,156.408386 279.701874,153.140244 
	C286.309326,152.515900 284.307495,146.319244 285.964600,141.717560 
z"/>
<path fill="#FFF8EB" opacity="1.000000" stroke="none" 
	d="
M225.338150,66.361176 
	C226.616791,65.681686 227.895432,65.002190 229.174057,64.322693 
	C229.934097,66.037277 230.694122,67.751869 231.454163,69.466461 
	C231.656540,69.985817 231.858917,70.505173 232.061310,71.024529 
	C233.356995,69.155922 234.477478,67.121017 236.024597,65.491066 
	C236.763092,64.713036 238.619583,64.092781 239.418854,64.495171 
	C240.519257,65.049156 241.896576,66.741577 241.765381,67.768768 
	C241.107666,72.918365 242.252441,78.583206 238.167297,82.890900 
	C237.302597,83.802711 236.148483,84.440063 234.377792,84.337540 
	C235.813599,78.863388 237.249390,73.389236 238.685196,67.915077 
	C238.144547,67.638489 237.603897,67.361900 237.063248,67.085304 
	C234.790283,70.154762 232.606140,73.295517 230.217499,76.272141 
	C228.137436,78.864220 228.386215,83.631859 223.112411,84.431557 
	C224.447052,78.239746 225.601349,72.884628 226.246460,67.136879 
	C225.604218,66.616554 225.471176,66.488869 225.338150,66.361176 
z"/>
<path fill="#000000" opacity="1.000000" stroke="none" 
	d="
M46.999115,157.008087 
	C46.999115,152.213409 46.999115,147.916336 46.999115,143.418106 
	C48.693546,143.095322 50.214241,142.805634 51.824074,142.498962 
	C51.824074,153.916504 51.824074,165.319199 51.824074,176.944351 
	C50.221882,176.505249 48.838669,176.126160 46.999115,175.622009 
	C46.999115,169.705826 46.999115,163.605774 46.999115,157.008087 
z"/>
<path fill="#000000" opacity="1.000000" stroke="none" 
	d="
M133.883957,10.503599 
	C143.626205,10.131800 153.441971,10.131800 163.716888,10.131800 
	C153.617249,15.462708 143.828049,14.803535 133.883957,10.503599 
z"/>
<path fill="#FFF8EB" opacity="1.000000" stroke="none" 
	d="
M216.268616,66.225632 
	C219.171188,63.246483 221.483917,64.107010 220.933624,67.661995 
	C220.125458,72.882637 220.733124,78.636574 216.979752,83.114120 
	C216.351791,83.863251 215.268753,84.230919 214.395996,84.774841 
	C214.231674,83.685532 213.714066,82.506104 213.964935,81.522713 
	C214.984711,77.525307 216.354416,73.615501 217.318695,69.606911 
	C217.527817,68.737579 216.593658,67.593216 216.268616,66.225632 
z"/>
<path fill="#FFF8EB" opacity="1.000000" stroke="none" 
	d="
M225.931015,66.941681 
	C225.657211,67.382286 225.189667,67.625465 224.722137,67.868652 
	C224.799438,67.491821 224.876724,67.114990 225.146088,66.549667 
	C225.471176,66.488869 225.604218,66.616554 225.931015,66.941681 
z"/>
<path fill="#FEB126" opacity="1.000000" stroke="none" 
	d="
M201.989990,149.667175 
	C198.333038,150.130325 196.955093,148.832291 197.285706,145.510101 
	C197.498535,143.371292 197.074692,141.150589 197.432495,139.051193 
	C197.673447,137.637543 198.838806,135.226089 199.489609,135.258972 
	C201.287277,135.349854 204.410751,136.284042 204.554825,137.250687 
	C205.127518,141.093414 204.806091,145.077423 204.647568,149.002289 
	C204.637482,149.251740 203.198441,149.443466 201.989990,149.667175 
z"/>
</svg>